<?xml version="1.0" encoding="UTF-8" standalone="no"?>
<!DOCTYPE svg PUBLIC "-//W3C//DTD SVG 1.1//EN" "http://www.w3.org/Graphics/SVG/1.1/DTD/svg11.dtd">
<svg width="100%" height="100%" viewBox="0 0 1791 1599" version="1.1" xmlns="http://www.w3.org/2000/svg" xmlns:xlink="http://www.w3.org/1999/xlink" xml:space="preserve" xmlns:serif="http://www.serif.com/" style="fill-rule:evenodd;clip-rule:evenodd;stroke-linecap:round;stroke-linejoin:round;stroke-miterlimit:1.5;">
    <g transform="matrix(1.16537,0,0,0.780362,0,0)">
        <rect id="Artboard1" x="0" y="0" width="1536" height="2048" style="fill:none;"/>
        <g id="Artboard11" serif:id="Artboard1">
            <g id="Subway" transform="matrix(1.99079,0,0,4.18656,-457.548,-1542.35)">
                <g opacity="0.5">
                    <g transform="matrix(0.862065,0,0,0.612176,-1348.44,-1994.73)">
                        <path d="M2017.55,3931.84L2017.55,4615.44" style="fill:none;stroke:rgb(13,27,42);stroke-width:30px;"/>
                    </g>
                    <g transform="matrix(0.862065,0,0,0.612176,-1291.54,-1994.73)">
                        <path d="M1991.53,3946.35L1991.53,4286.87C1991.53,4290.85 1993.11,4294.66 1995.92,4297.48C1998.73,4300.29 2002.55,4301.87 2006.53,4301.87L2156.42,4301.87C2160.4,4301.87 2164.22,4303.45 2167.03,4306.26C2169.84,4309.08 2171.42,4312.89 2171.42,4316.87L2171.42,4566.68" style="fill:none;stroke:rgb(13,27,42);stroke-width:0px;"/>
                    </g>
                    <g transform="matrix(0.862065,0,0,0.612176,-1343.27,-1994.73)">
                        <path d="M2052.09,4052.73L2052.09,4582.34" style="fill:none;stroke:rgb(13,27,42);stroke-width:30px;"/>
                    </g>
                    <g transform="matrix(7.58621e-17,0.612176,-1.23892,3.7485e-17,5942.3,-556.456)">
                        <path d="M2052.09,4052.73L2052.09,4582.34" style="fill:none;stroke:rgb(13,27,42);stroke-width:20px;"/>
                    </g>
                    <g transform="matrix(0.862065,0,0,0.612176,-1343.27,-1994.73)">
                        <path d="M1925.13,4098.78L2389.53,4098.78C2393.5,4098.78 2397.32,4097.2 2400.13,4094.39C2429.41,4065.11 2595.06,3899.45 2595.06,3899.45" style="fill:none;stroke:rgb(13,27,42);stroke-width:30px;"/>
                    </g>
                    <g transform="matrix(0.862065,0,0,0.612176,-1394.99,-1982.49)">
                        <path d="M2397.18,4582.34L2397.18,3979.78C2397.18,3975.81 2395.6,3971.99 2392.78,3969.18C2375.29,3951.69 2311.55,3887.94 2311.55,3887.94" style="fill:none;stroke:rgb(13,27,42);stroke-width:30px;"/>
                    </g>
                    <g transform="matrix(0.862065,0,0,0.612176,-1343.27,-2006.36)">
                        <path d="M2457.62,4586.66L2457.62,4217.25C2457.62,4213.27 2459.2,4209.45 2462.02,4206.64C2494.02,4174.64 2690.05,3978.61 2690.05,3978.61" style="fill:none;stroke:rgb(13,27,42);stroke-width:30px;"/>
                    </g>
                    <g transform="matrix(0.737928,0,0,0.524023,-971.556,-1565.74)">
                        <circle cx="2227.22" cy="4429.76" r="17.99" style="fill:rgb(27,38,59);stroke:rgb(13,27,42);stroke-width:8px;"/>
                    </g>
                    <g transform="matrix(0.737928,0,0,0.524023,-867.289,-1622.58)">
                        <circle cx="2227.22" cy="4429.76" r="17.99" style="fill:rgb(27,38,59);stroke:rgb(13,27,42);stroke-width:8px;"/>
                    </g>
                    <g transform="matrix(0.737928,0,0,0.524023,-971.556,-1806.17)">
                        <circle cx="2227.22" cy="4429.76" r="17.99" style="fill:rgb(27,38,59);stroke:rgb(13,27,42);stroke-width:8px;"/>
                    </g>
                    <g transform="matrix(0.737928,0,0,0.524023,-830.22,-1777.75)">
                        <circle cx="2227.22" cy="4429.76" r="17.99" style="fill:rgb(27,38,59);stroke:rgb(13,27,42);stroke-width:8px;"/>
                    </g>
                    <g transform="matrix(0.737928,0,0,0.524023,-834.666,-1868.42)">
                        <circle cx="2227.22" cy="4429.76" r="17.99" style="fill:rgb(27,38,59);stroke:rgb(13,27,42);stroke-width:8px;"/>
                    </g>
                    <g transform="matrix(0.737928,0,0,0.524023,-1253.91,-1564.39)">
                        <circle cx="2227.22" cy="4429.76" r="17.99" style="fill:rgb(27,38,59);stroke:rgb(13,27,42);stroke-width:8px;"/>
                    </g>
                    <g transform="matrix(0.737928,0,0,0.524023,-1217.7,-1805.72)">
                        <circle cx="2227.22" cy="4429.76" r="17.99" style="fill:rgb(27,38,59);stroke:rgb(13,27,42);stroke-width:8px;"/>
                    </g>
                    <g transform="matrix(0.737928,0,0,0.524023,-1253.28,-1805.72)">
                        <circle cx="2227.22" cy="4429.76" r="17.99" style="fill:rgb(27,38,59);stroke:rgb(13,27,42);stroke-width:8px;"/>
                    </g>
                    <g transform="matrix(0.737928,0,0,0.524023,-1062.71,-1620.32)">
                        <circle cx="2227.22" cy="4429.76" r="17.99" style="fill:rgb(27,38,59);stroke:rgb(13,27,42);stroke-width:8px;"/>
                    </g>
                    <g transform="matrix(0.737928,0,0,0.524023,-1217.7,-1687.53)">
                        <circle cx="2227.22" cy="4429.76" r="17.99" style="fill:rgb(27,38,59);stroke:rgb(13,27,42);stroke-width:8px;"/>
                    </g>
                </g>
            </g>
        </g>
    </g>
</svg>
